<svg width="50" height="50" viewBox="0 0 50 50" fill="none" xmlns="http://www.w3.org/2000/svg">
<path d="M6.875 23.5421C6.49327 23.9315 6.27946 24.4551 6.27946 25.0004C6.27946 25.5457 6.49327 26.0693 6.875 26.4587L17.2917 36.8754C17.4708 37.1142 17.6991 37.3117 17.9611 37.4546C18.2232 37.5975 18.5129 37.6823 18.8106 37.7035C19.1084 37.7247 19.4072 37.6816 19.6868 37.5772C19.9665 37.4728 20.2204 37.3096 20.4315 37.0985C20.6425 36.8875 20.8058 36.6335 20.9101 36.3539C21.0145 36.0743 21.0576 35.7755 21.0364 35.4777C21.0153 35.18 20.9304 34.8903 20.7875 34.6282C20.6446 34.3661 20.4471 34.1378 20.2083 33.9587L13.3542 27.0837L41.6667 27.0837C42.2192 27.0837 42.7491 26.8642 43.1398 26.4735C43.5305 26.0828 43.75 25.5529 43.75 25.0004C43.75 24.4479 43.5305 23.918 43.1398 23.5273C42.7491 23.1366 42.2192 22.9171 41.6667 22.9171L13.3542 22.9171L20.2292 16.0421C20.5678 15.6411 20.7427 15.1271 20.7188 14.6029C20.6949 14.0786 20.474 13.5826 20.1003 13.2141C19.7266 12.8457 19.2275 12.6318 18.703 12.6154C18.1784 12.5989 17.6669 12.7811 17.2708 13.1254L6.85417 23.5421H6.875Z" fill="#ABABAB"/>
</svg>
