<svg width="50" height="50" viewBox="0 0 50 50" fill="none" xmlns="http://www.w3.org/2000/svg">
<path d="M43.125 26.458C43.5067 26.0686 43.7205 25.545 43.7205 24.9997C43.7205 24.4543 43.5067 23.9308 43.125 23.5413L32.7083 13.1247C32.5292 12.8859 32.3009 12.6884 32.0389 12.5455C31.7768 12.4026 31.4871 12.3177 31.1894 12.2966C30.8916 12.2754 30.5928 12.3185 30.3132 12.4228C30.0335 12.5272 29.7796 12.6905 29.5685 12.9015C29.3575 13.1126 29.1942 13.3665 29.0899 13.6462C28.9855 13.9258 28.9424 14.2246 28.9636 14.5223C28.9847 14.8201 29.0696 15.1098 29.2125 15.3719C29.3554 15.6339 29.5529 15.8622 29.7917 16.0413L36.6458 22.9163H8.33333C7.7808 22.9163 7.25089 23.1358 6.86019 23.5265C6.46949 23.9172 6.25 24.4471 6.25 24.9997C6.25 25.5522 6.46949 26.0821 6.86019 26.4728C7.25089 26.8635 7.7808 27.083 8.33333 27.083H36.6458L29.7708 33.958C29.4322 34.3589 29.2573 34.8729 29.2812 35.3972C29.3051 35.9215 29.526 36.4174 29.8997 36.7859C30.2734 37.1544 30.7725 37.3682 31.297 37.3847C31.8216 37.4011 32.3331 37.219 32.7292 36.8747L43.1458 26.458H43.125Z" fill="#ABABAB"/>
</svg>
