<svg width="50" height="50" viewBox="0 0 50 50" fill="none" xmlns="http://www.w3.org/2000/svg">
<path fill-rule="evenodd" clip-rule="evenodd" d="M4.16669 10.4167C4.16669 8.75906 4.82517 7.16935 5.99727 5.99725C7.16937 4.82515 8.75908 4.16667 10.4167 4.16667H39.5834C41.241 4.16667 42.8307 4.82515 44.0028 5.99725C45.1749 7.16935 45.8334 8.75906 45.8334 10.4167V39.5833C45.8334 41.2409 45.1749 42.8306 44.0028 44.0027C42.8307 45.1749 41.241 45.8333 39.5834 45.8333H10.4167C8.75908 45.8333 7.16937 45.1749 5.99727 44.0027C4.82517 42.8306 4.16669 41.2409 4.16669 39.5833V10.4167ZM31.9792 27.3542L39.2709 37.0833C40.0417 38.125 39.3125 39.5833 38.0209 39.5833H12.1042C11.8085 39.5855 11.5184 39.5038 11.2673 39.3476C11.0163 39.1915 10.8147 38.9673 10.686 38.7011C10.5573 38.435 10.5067 38.1378 10.5402 37.844C10.5736 37.5503 10.6897 37.2721 10.875 37.0417L14.75 32.2083C15.0428 31.8434 15.4139 31.5488 15.8358 31.3464C16.2576 31.144 16.7196 31.0389 17.1875 31.0389C17.6554 31.0389 18.1174 31.144 18.5393 31.3464C18.9612 31.5488 19.3322 31.8434 19.625 32.2083L20.6667 33.5417L25.3125 27.3542C25.7006 26.8367 26.2039 26.4167 26.7825 26.1274C27.361 25.8381 27.999 25.6875 28.6459 25.6875C29.2927 25.6875 29.9307 25.8381 30.5092 26.1274C31.0878 26.4167 31.5911 26.8367 31.9792 27.3542ZM21.25 12.4583C21.7292 10.5625 19.4167 9.22917 18.0209 10.5833C17.6589 10.9371 17.1728 11.1351 16.6667 11.1351C16.1606 11.1351 15.6745 10.9371 15.3125 10.5833C13.9167 9.22917 11.6042 10.5625 12.0834 12.4583C12.2051 12.947 12.1319 13.4639 11.8791 13.8994C11.6263 14.335 11.2139 14.655 10.7292 14.7917C8.85419 15.3333 8.85419 18 10.7292 18.5417C11.7292 18.8333 12.3334 19.8542 12.0834 20.875C11.6042 22.7708 13.9167 24.1042 15.3125 22.75C15.6745 22.3962 16.1606 22.1982 16.6667 22.1982C17.1728 22.1982 17.6589 22.3962 18.0209 22.75C19.4167 24.1042 21.7292 22.7708 21.25 20.875C21.1282 20.3864 21.2015 19.8695 21.4543 19.4339C21.7071 18.9984 22.1195 18.6783 22.6042 18.5417C24.4792 18 24.4792 15.3333 22.6042 14.7917C22.1195 14.655 21.7071 14.335 21.4543 13.8994C21.2015 13.4639 21.1282 12.947 21.25 12.4583Z" fill="#ABABAB"/>
</svg>
