<svg width="50" height="50" viewBox="0 0 50 50" fill="none" xmlns="http://www.w3.org/2000/svg">
<path d="M29.6875 2.08325C30.5417 2.08325 31.25 2.79159 31.25 3.64575V6.24992H42.1875C43.0417 6.24992 43.75 6.95825 43.75 7.81242V8.85409C43.75 9.70825 43.0417 10.4166 42.1875 10.4166H7.8125C7.3981 10.4166 7.00067 10.252 6.70765 9.95894C6.41462 9.66591 6.25 9.26849 6.25 8.85409V7.81242C6.25 6.95825 6.95833 6.24992 7.8125 6.24992H18.75V3.64575C18.75 2.79159 19.4583 2.08325 20.3125 2.08325H29.6875Z" fill="#ABABAB"/>
<path fill-rule="evenodd" clip-rule="evenodd" d="M10.5417 14.5833C10.2572 14.5827 9.97572 14.6405 9.71445 14.7529C9.45318 14.8653 9.2177 15.0301 9.02252 15.237C8.82734 15.4439 8.67659 15.6885 8.57956 15.9559C8.48253 16.2233 8.44128 16.5077 8.45834 16.7916L10.0417 42.0624C10.1425 43.6505 10.8452 45.1403 12.0065 46.2281C13.1679 47.3159 14.7004 47.9198 16.2917 47.9166H33.7083C35.2996 47.9198 36.8321 47.3159 37.9935 46.2281C39.1549 45.1403 39.8576 43.6505 39.9583 42.0624L41.5208 16.7916C41.5379 16.5077 41.4967 16.2233 41.3996 15.9559C41.3026 15.6885 41.1519 15.4439 40.9567 15.237C40.7615 15.0301 40.526 14.8653 40.2647 14.7529C40.0035 14.6405 39.7219 14.5827 39.4375 14.5833H10.5625H10.5417ZM22.9167 24.9999C22.9167 24.4474 22.6972 23.9175 22.3065 23.5268C21.9158 23.1361 21.3859 22.9166 20.8333 22.9166C20.2808 22.9166 19.7509 23.1361 19.3602 23.5268C18.9695 23.9175 18.75 24.4474 18.75 24.9999V37.4999C18.75 38.0525 18.9695 38.5824 19.3602 38.9731C19.7509 39.3638 20.2808 39.5833 20.8333 39.5833C21.3859 39.5833 21.9158 39.3638 22.3065 38.9731C22.6972 38.5824 22.9167 38.0525 22.9167 37.4999V24.9999ZM29.1667 22.9166C29.7192 22.9166 30.2491 23.1361 30.6398 23.5268C31.0305 23.9175 31.25 24.4474 31.25 24.9999V37.4999C31.25 38.0525 31.0305 38.5824 30.6398 38.9731C30.2491 39.3638 29.7192 39.5833 29.1667 39.5833C28.6141 39.5833 28.0842 39.3638 27.6935 38.9731C27.3028 38.5824 27.0833 38.0525 27.0833 37.4999V24.9999C27.0833 24.4474 27.3028 23.9175 27.6935 23.5268C28.0842 23.1361 28.6141 22.9166 29.1667 22.9166Z" fill="#ABABAB"/>
</svg>
