<svg width="50" height="50" viewBox="0 0 50 50" fill="none" xmlns="http://www.w3.org/2000/svg">
<path d="M4.16668 42.8958V40.4167C4.1745 39.8672 4.39914 39.3429 4.79168 38.9583L9.79168 33.9167C9.98635 33.7236 10.2172 33.5708 10.471 33.4672C10.7249 33.3634 10.9967 33.3109 11.2708 33.3125H12.5L31.25 14.5625L29.4792 12.7916C29.2722 12.5912 29.1091 12.35 29 12.0833L25.8958 4.31248C25.82 4.12318 25.8016 3.9158 25.8425 3.71607C25.8835 3.51632 25.9822 3.33299 26.1263 3.18882C26.2705 3.04463 26.4539 2.94595 26.6536 2.90498C26.8533 2.86399 27.0606 2.88254 27.25 2.95832L35.0208 6.08332C35.2858 6.18618 35.5267 6.34216 35.7292 6.54165L37.0625 7.87498C37.2561 7.67971 37.4866 7.52473 37.7405 7.41896C37.9944 7.3132 38.2666 7.25874 38.5417 7.25874C38.8167 7.25874 39.0891 7.3132 39.3428 7.41896C39.5967 7.52473 39.8272 7.67971 40.0208 7.87498L42.1042 9.95832C42.2994 10.152 42.4544 10.3824 42.5602 10.6363C42.666 10.8901 42.7205 11.1625 42.7205 11.4375C42.7205 11.7125 42.666 11.9848 42.5602 12.2387C42.4544 12.4926 42.2994 12.723 42.1042 12.9166L45.3958 16.2083C45.5911 16.402 45.7461 16.6325 45.8519 16.8862C45.9577 17.1401 46.0121 17.4125 46.0121 17.6875C46.0121 17.9625 45.9577 18.2348 45.8519 18.4887C45.7461 18.7426 45.5911 18.9729 45.3958 19.1667L42.1042 22.4583C41.9105 22.6536 41.68 22.8086 41.4263 22.9144C41.1724 23.0201 40.9 23.0745 40.625 23.0745C40.35 23.0745 40.0777 23.0201 39.8238 22.9144C39.5699 22.8086 39.3396 22.6536 39.1458 22.4583L35.4167 18.75L16.6667 37.5V38.7292C16.6589 39.2787 16.4342 39.8028 16.0417 40.1875L11.0417 45.2292C10.847 45.4222 10.6161 45.575 10.3623 45.6787C10.1085 45.7823 9.83669 45.835 9.5625 45.8333H7.08335C6.53383 45.8254 6.00966 45.6009 5.625 45.2083L4.75 44.375C4.55693 44.1803 4.40416 43.9495 4.30049 43.6956C4.19682 43.4419 4.14425 43.17 4.14585 42.8958H4.16668Z" fill="#ABABAB"/>
<path d="M17.1458 21.3125C17.5625 21.7292 18.2083 21.7292 18.6042 21.3125L21.3125 18.6042C21.5033 18.4094 21.6103 18.1477 21.6103 17.875C21.6103 17.6023 21.5033 17.3406 21.3125 17.1458L13.5417 9.375L14.1667 8.75C14.5484 8.36056 14.7622 7.83698 14.7622 7.29167C14.7622 6.74634 14.5484 6.22277 14.1667 5.83333L13.125 4.79167C12.7083 4.375 12.1875 4.16667 11.6667 4.33333C10.7708 4.625 9.22916 5.35417 7.29166 7.29167C5.97051 8.49302 4.95614 9.99314 4.33333 11.6667C4.16666 12.1875 4.39583 12.7083 4.77083 13.125L5.81248 14.1667C6.00616 14.3619 6.23658 14.5169 6.49045 14.6227C6.74433 14.7285 7.01662 14.7829 7.29166 14.7829C7.56667 14.7829 7.83898 14.7285 8.09286 14.6227C8.34673 14.5169 8.57716 14.3619 8.77083 14.1667L9.37498 13.5417L17.1458 21.3125ZM28.6875 31.375C28.4966 31.5697 28.3897 31.8316 28.3897 32.1042C28.3897 32.3769 28.4966 32.6386 28.6875 32.8333L32.2917 36.4583L35.2917 41.4583C35.3794 41.6025 35.4844 41.7353 35.6042 41.8542L39.2083 45.4583C39.4167 45.6667 39.75 45.6667 39.9583 45.4583L45.4583 39.9583C45.6667 39.75 45.6667 39.4167 45.4583 39.2083L41.875 35.625C41.7497 35.5037 41.6097 35.3989 41.4583 35.3125L36.4583 32.2917L32.8542 28.6875C32.6594 28.4967 32.3977 28.3897 32.125 28.3897C31.8523 28.3897 31.5905 28.4967 31.3958 28.6875L28.6875 31.3958V31.375Z" fill="#ABABAB"/>
</svg>
