<svg width="50" height="50" viewBox="0 0 50 50" fill="none" xmlns="http://www.w3.org/2000/svg">
<path fill-rule="evenodd" clip-rule="evenodd" d="M8.89589 10.8745C8.08388 11.3722 7.41383 12.0707 6.95039 12.9027C6.48694 13.7348 6.24574 14.6722 6.25006 15.6245V20.4162C6.25006 32.0829 13.1251 42.6662 23.7917 47.3954C24.5626 47.7495 25.4376 47.7495 26.2084 47.3954C31.4338 45.0725 35.8728 41.2829 38.9866 36.4865C42.1004 31.6901 43.7551 26.093 43.7501 20.3745V15.6245C43.7501 13.687 42.7501 11.9162 41.1042 10.8954L28.2501 3.06203C27.2708 2.46589 26.1465 2.15057 25.0001 2.15057C23.8536 2.15057 22.7293 2.46589 21.7501 3.06203L8.89589 10.8745ZM12.5001 15.9995L25.0001 8.37454V24.9995H12.9584C12.6667 23.4995 12.5001 21.9579 12.5001 20.3745V15.9995ZM25.0001 41.0204V24.9995H37.0417C36.355 28.4011 34.9176 31.6064 32.8344 34.3817C30.7511 37.1569 28.0746 39.4321 25.0001 41.0412V41.0204Z" fill="#ABABAB"/>
</svg>
