<svg width="397" height="471" viewBox="0 0 397 471" fill="none" xmlns="http://www.w3.org/2000/svg">
<path d="M223.86 303.923C187.25 317.574 146.084 309.676 117.125 283.444L71.4985 242.113C62.7832 234.218 51.4438 229.846 39.6843 229.846H30.5332" stroke="url(#paint0_linear_302_2)" stroke-width="59.8958" stroke-linecap="round"/>
<path d="M164.254 223.583L307.282 183.543C335.838 253.886 360.44 303.541 369.696 373.566C375.492 444.343 335.282 470.148 284.143 470.148H216.709C165.63 470.148 127.084 423.788 136.408 373.566C151.952 315.126 158.535 282.29 164.254 223.583Z" fill="url(#paint1_linear_302_2)"/>
<path d="M164.254 223.583L307.282 183.543C335.838 253.886 360.44 303.541 369.696 373.566C375.492 444.343 335.282 470.148 284.143 470.148H216.709C165.63 470.148 127.084 423.788 136.408 373.566C151.952 315.126 158.535 282.29 164.254 223.583Z" fill="#5865F2"/>
<path d="M164.254 223.583L307.282 183.543C335.838 253.886 360.44 303.541 369.696 373.566C375.492 444.343 335.282 470.148 284.143 470.148H216.709C165.63 470.148 127.084 423.788 136.408 373.566C151.952 315.126 158.535 282.29 164.254 223.583Z" fill="url(#paint2_linear_302_2)"/>
<path d="M215.904 12.6629C196.061 12.1273 190.186 44.1351 180.013 58.7792L223.322 63.5917C232.294 48.0544 236.689 13.2237 215.904 12.6629Z" fill="#29CC7A"/>
<path d="M115.401 17.1675C141.873 -0.0206402 160.199 61.1735 199.051 59.19L136.808 84.96C116.986 79.8038 84.8761 36.9878 115.401 17.1675Z" fill="#57F287"/>
<path d="M194.676 70.8939C207.994 49.4598 217.15 24.0718 221.312 1.18164" stroke="#06AA58" stroke-width="2.60417"/>
<path d="M303.493 183.193C227.686 256.184 183.797 258.531 156.808 230.133L172.063 222.62L303.493 183.193Z" fill="#3543DA"/>
<path fill-rule="evenodd" clip-rule="evenodd" d="M110.776 20.9238C111.493 20.2276 112.268 19.5497 113.099 18.8926C114.937 32.6912 124.098 47.1955 137.752 58.7945C145.014 64.9638 153.509 70.2762 162.769 74.1964L159.434 75.5775C150.818 71.666 142.907 66.5905 136.066 60.7789C122.643 49.3761 113.212 35.0263 110.776 20.9238Z" fill="#29CC7A"/>
<path fill-rule="evenodd" clip-rule="evenodd" d="M63.299 115.505C58.9171 129.053 63.2166 144.672 71.8147 175.91C80.286 206.689 84.5221 222.079 95.1324 231.456C99.6697 235.467 105.242 238.731 110.959 240.728C124.328 245.397 139.382 241.674 169.493 234.23C197.621 227.275 223.347 220.212 250.944 211.849C270.773 205.841 283.999 201.833 293.317 196.592L359.689 166.767C368.202 162.941 372.655 153.481 370.178 144.483L344.159 49.9519C341.693 40.9927 333.086 35.1489 323.848 36.1628L251.362 44.1177C240.448 44.4119 226.694 47.9493 205.936 53.2887C179.033 60.208 154.093 67.1142 127.21 75.0404C96.7131 84.0317 81.4657 88.5274 72.2634 99.3937C68.3025 104.07 65.1853 109.674 63.299 115.505Z" fill="#5865F2"/>
<path d="M264.607 28.584L284.156 27.1309L295.672 33.7793L284.548 53.0467L273.032 46.3982L264.607 28.584Z" fill="#FFF2A6"/>
<path d="M286.995 28.7812L379.834 82.3819L368.716 101.639L275.877 48.0382L285.528 47.191L281.436 38.4097L291.087 37.5625L286.995 28.7812Z" fill="#FFC619"/>
<path fill-rule="evenodd" clip-rule="evenodd" d="M274.618 27.8398L264.607 28.5846L268.945 37.7556C270.772 36.9874 272.373 35.6385 273.44 33.7895C274.521 31.9171 274.886 29.8286 274.618 27.8398Z" fill="black"/>
<path d="M380.376 85.1602C381.531 83.1602 380.845 80.6029 378.845 79.4482C376.845 78.2935 374.288 78.9787 373.133 80.9787L364.148 96.5412C362.994 98.5412 363.679 101.099 365.679 102.253C367.679 103.408 370.236 102.723 371.391 100.723L380.376 85.1602Z" fill="#686C8E"/>
<path d="M392.692 90.8369L386.27 87.1291C384.194 85.9306 381.54 86.6419 380.341 88.7178L374.405 99C373.206 101.076 373.918 103.73 375.994 104.929L382.416 108.637C384.492 109.835 387.146 109.124 388.345 107.048L394.281 96.7658C395.48 94.6899 394.768 92.0354 392.692 90.8369Z" fill="#EB459F"/>
<path d="M387.619 89.3399C388.774 87.3399 388.089 84.7825 386.089 83.6279C384.089 82.4732 381.531 83.1584 380.377 85.1584L371.392 100.721C370.237 102.721 370.922 105.278 372.922 106.433C374.922 107.588 377.479 106.902 378.634 104.902L387.619 89.3399Z" fill="#686C8E"/>
<path fill-rule="evenodd" clip-rule="evenodd" d="M289.111 37.7361L291.085 37.5634L290 35.2344L366.148 80.6502C366.765 81.0182 366.967 81.8177 366.599 82.4349C366.23 83.053 365.432 83.2552 364.814 82.8863L289.111 37.7361ZM283.062 47.408L285.526 47.191L284.654 45.3194L359.13 88.3186C359.752 88.678 359.966 89.474 359.606 90.0972C359.246 90.7196 358.45 90.9332 357.828 90.5738L283.062 47.408Z" fill="#E3AE0E"/>
<path d="M304.583 69.829C304.148 68.2491 305.077 66.6154 306.656 66.1805L327.088 60.5564C339.845 57.0451 353.033 64.5408 356.544 77.2977L366.847 114.728C370.358 127.485 362.863 140.674 350.106 144.185L329.675 149.808C328.094 150.243 326.46 149.314 326.025 147.734L304.583 69.829Z" fill="url(#paint3_linear_302_2)"/>
<path d="M308.75 84.9596C308.369 83.5733 309.183 82.1402 310.571 81.7582L330.422 76.2938C335.969 74.7678 341.703 78.0265 343.229 83.5733L352.196 116.151C353.723 121.698 350.464 127.433 344.918 128.959L325.065 134.423C323.679 134.804 322.246 133.99 321.864 132.603L308.75 84.9596Z" fill="#808AFF"/>
<path d="M119.946 134.291C118.906 130.512 121.123 126.607 124.901 125.567C128.326 124.624 132.778 123.398 137.644 122.059L204.521 103.652C209.388 102.312 213.841 101.087 217.266 100.145C221.045 99.1048 224.946 101.326 225.986 105.105L237.633 147.419C242.098 163.641 232.567 180.412 216.345 184.877L169.051 197.894C152.828 202.359 136.058 192.828 131.593 176.606L119.946 134.291Z" fill="#808AFF"/>
<path d="M163.694 166.874L149.049 170.905C145.978 171.75 144.173 174.925 145.019 177.996C145.864 181.067 149.039 182.871 152.11 182.026L166.755 177.995C169.826 177.15 171.631 173.975 170.785 170.904C169.94 167.833 166.765 166.029 163.694 166.874Z" fill="#5865F2"/>
<path d="M201.612 156.438L186.966 160.47C183.895 161.315 182.091 164.489 182.936 167.56C183.781 170.631 186.956 172.436 190.027 171.59L204.673 167.559C207.744 166.714 209.548 163.539 208.703 160.468C207.858 157.397 204.683 155.593 201.612 156.438Z" fill="#5865F2"/>
<path d="M242.342 98.2616C248.408 98.2616 253.326 93.3442 253.326 87.2783C253.326 81.2123 248.408 76.2949 242.342 76.2949C236.276 76.2949 231.359 81.2123 231.359 87.2783C231.359 93.3442 236.276 98.2616 242.342 98.2616Z" fill="black"/>
<path d="M102.814 136.523C108.88 136.523 113.798 131.606 113.798 125.54C113.798 119.474 108.88 114.557 102.814 114.557C96.7486 114.557 91.8312 119.474 91.8312 125.54C91.8312 131.606 96.7486 136.523 102.814 136.523Z" fill="black"/>
<path d="M288.613 181.6C289.438 162.105 270.559 152.273 263.027 159.39L245.566 177.634C257.356 174.779 262.831 177.845 266.31 184.117C270.862 192.322 281.233 194.694 286.626 187.016C287.753 185.413 288.531 183.558 288.613 181.6Z" fill="#EB459F"/>
<path d="M269.22 153.338L231.628 190.115" stroke="black" stroke-width="2.60417" stroke-linecap="round"/>
<path d="M256.394 165.851C262.756 161.073 278.972 168.92 281.273 181.197" stroke="black" stroke-width="2.60417" stroke-linecap="round"/>
<path fill-rule="evenodd" clip-rule="evenodd" d="M301.559 228.817C321.24 239.205 328.773 263.578 318.386 283.257L310.49 298.217C285.229 346.077 235.557 376.026 181.439 376.026H124.671C102.419 376.026 83.3206 362.748 83.3206 340.495C83.3206 318.243 102.419 303.301 124.671 303.301H181.439C205.671 303.301 227.913 282.032 239.223 260.602L247.119 245.643C257.506 225.963 281.88 218.43 301.559 228.817Z" fill="url(#paint4_linear_302_2)"/>
<path d="M318.386 283.256L310.49 298.215C294.225 329.031 267.84 352.422 236.663 365.173" stroke="black" stroke-width="2.60417" stroke-linecap="round"/>
<path d="M269.354 226.453C262.604 228.832 256.472 233.003 251.736 238.723C249.997 240.825 248.446 243.136 247.122 245.644L239.226 260.603C227.915 282.033 205.674 303.302 181.442 303.302H156.834" stroke="black" stroke-width="2.60417" stroke-linecap="round"/>
<path d="M153.035 303.278L153.996 298.848H150.42L148.992 300.116L149.538 303.278H153.035Z" fill="#3543DA"/>
<path d="M37.155 255.318L34.5768 253.523C29.0736 249.691 21.5057 251.045 17.6735 256.548C13.8413 262.052 15.1959 269.62 20.6991 273.452L23.2773 275.247C28.7806 279.079 36.3484 277.725 40.1807 272.221C44.0129 266.718 42.6582 259.15 37.155 255.318Z" fill="#5360EE"/>
<path d="M55.1018 253.069C55.5124 252.479 55.3674 251.667 54.7772 251.257C54.1869 250.845 53.3761 250.991 52.9647 251.58L55.1018 253.069ZM32.5949 237.396C33.0055 236.806 32.8605 235.995 32.2702 235.583C31.6799 235.172 30.8683 235.317 30.4577 235.908L32.5949 237.396ZM52.9647 251.58L40.0089 270.186L42.1461 271.673L55.1018 253.069L52.9647 251.58ZM19.6391 256.001L32.5949 237.396L30.4577 235.908L17.502 254.513L19.6391 256.001ZM22.732 273.278C17.107 269.361 15.7225 261.626 19.6391 256.001L17.502 254.513C12.7633 261.318 14.4386 270.677 21.2433 275.416L22.732 273.278ZM40.0089 270.186C36.0923 275.811 28.357 277.195 22.732 273.278L21.2433 275.416C28.0489 280.154 37.4074 278.479 42.1461 271.673L40.0089 270.186Z" fill="black"/>
<defs>
<linearGradient id="paint0_linear_302_2" x1="114.233" y1="262.733" x2="30.5332" y2="234.022" gradientUnits="userSpaceOnUse">
<stop stop-color="#3442D9"/>
<stop offset="1" stop-color="#5865F2"/>
</linearGradient>
<linearGradient id="paint1_linear_302_2" x1="298.095" y1="292.125" x2="284.13" y2="579.569" gradientUnits="userSpaceOnUse">
<stop stop-color="#5865F2"/>
<stop offset="1" stop-color="#808AFF"/>
</linearGradient>
<linearGradient id="paint2_linear_302_2" x1="252.622" y1="183.543" x2="252.622" y2="470.148" gradientUnits="userSpaceOnUse">
<stop stop-color="#5865F2"/>
<stop offset="1" stop-color="#3442D9"/>
</linearGradient>
<linearGradient id="paint3_linear_302_2" x1="325.573" y1="48.8967" x2="345.197" y2="166.642" gradientUnits="userSpaceOnUse">
<stop offset="0.188622" stop-color="#5865F2"/>
<stop offset="1" stop-color="#3543DA"/>
</linearGradient>
<linearGradient id="paint4_linear_302_2" x1="293.641" y1="237.059" x2="282.752" y2="306.788" gradientUnits="userSpaceOnUse">
<stop stop-color="#515FEE"/>
<stop offset="0.551319" stop-color="#4D5AEA"/>
<stop offset="1" stop-color="#5865F2"/>
</linearGradient>
</defs>
</svg>
